<svg xmlns="http://www.w3.org/2000/svg" width="40" height="40" fill="none" viewBox="0 0 40 40">
    <path fill="#05FFD1" d="M22.4 12.8H27.2V27.200000000000003H22.4z"/>
    <path fill="#05FFD1" d="M31.2 8h-4.8c.442 0 .8.358.8.8v22.4c0 .442-.358.8-.8.8h4.8c.442 0 .8-.358.8-.8V8.8c0-.442-.358-.8-.8-.8z"/>
    <path fill="#5F259F" fill-rule="evenodd" d="M12.8 11.2h14.4c.884 0 1.6.716 1.6 1.6v14.4c0 .884-.716 1.6-1.6 1.6H12.8c-.884 0-1.6-.716-1.6-1.6V12.8c0-.884.716-1.6 1.6-1.6zm0 16h14.4V12.8H12.8v14.4z" clip-rule="evenodd"/>
    <path fill="#5F259F" fill-rule="evenodd" d="M36.8 20c0 .442-.358.8-.8.8h-2.4v6.4H36c.442 0 .8.358.8.8 0 .442-.358.8-.8.8h-2.4v2.4c0 1.326-1.074 2.4-2.4 2.4h-2.4V36c0 .442-.358.8-.8.8-.442 0-.8-.358-.8-.8v-2.4h-6.4V36c0 .442-.358.8-.8.8-.442 0-.8-.358-.8-.8v-2.4h-6.4V36c0 .442-.358.8-.8.8-.442 0-.8-.358-.8-.8v-2.4H8.8c-1.325 0-2.4-1.074-2.4-2.4v-2.4H4c-.442 0-.8-.358-.8-.8 0-.442.358-.8.8-.8h2.4v-6.4H4c-.442 0-.8-.358-.8-.8 0-.442.358-.8.8-.8h2.4v-6.4H4c-.442 0-.8-.358-.8-.8 0-.442.358-.8.8-.8h2.4V8.8c0-1.325 1.075-2.4 2.4-2.4h2.4V4c0-.442.358-.8.8-.8.442 0 .8.358.8.8v2.4h6.4V4c0-.442.358-.8.8-.8.442 0 .8.358.8.8v2.4h6.4V4c0-.442.358-.8.8-.8.442 0 .8.358.8.8v2.4h2.4c1.326 0 2.4 1.075 2.4 2.4v2.4H36c.442 0 .8.358.8.8 0 .442-.358.8-.8.8h-2.4v6.4H36c.442 0 .8.358.8.8zm-5.6 12c.442 0 .8-.358.8-.8V8.8c0-.442-.358-.8-.8-.8H8.8c-.442 0-.8.358-.8.8v22.4c0 .442.358.8.8.8h22.4z" clip-rule="evenodd"/>
    <path fill="#5F259F" d="M22.4 22.4H25.599999999999998V25.599999999999998H22.4z"/>
</svg>
